<?xml version="1.0" encoding="UTF-8"?>
<svg xmlns="http://www.w3.org/2000/svg" xmlns:xlink="http://www.w3.org/1999/xlink" width="512px" height="512px" viewBox="0 0 512 512" version="1.1">
<g id="surface1">
<path style=" stroke:none;fill-rule:nonzero;fill:currentColor;fill-opacity:1;" d="M 0 256 L 0 512 L 512 512 L 512 0 L 0 0 Z M 266.800781 24.320312 C 282.320312 25.039062 295.761719 26.960938 308.878906 30.320312 C 345.199219 39.601562 374.800781 54.71875 402.800781 78.320312 C 427.601562 99.199219 450.640625 130.078125 463.039062 159.199219 C 469.601562 174.640625 476.320312 197.921875 479.519531 216.398438 C 482.640625 234.160156 483.039062 266.71875 480.320312 284.398438 C 476.878906 306.960938 474 318.160156 465.679688 341.199219 C 461.441406 352.800781 450.640625 372.558594 440.480469 387.039062 C 435.839844 393.601562 425.679688 405.121094 425.039062 404.480469 C 424.800781 404.320312 426.160156 402.238281 428.078125 399.839844 C 432 394.878906 435.199219 388.160156 435.199219 384.71875 C 435.199219 378.480469 433.601562 375.28125 427.039062 368.800781 C 417.28125 359.039062 416.71875 357.28125 415.921875 336.320312 C 415.601562 326.960938 415.121094 318.960938 414.960938 318.640625 C 414.71875 318.320312 415.199219 315.441406 416.078125 312.398438 C 419.199219 300.480469 417.679688 278.800781 412.640625 263.601562 C 407.679688 248.558594 394.71875 226.71875 381.359375 210.800781 C 371.441406 199.039062 364.078125 186.71875 360.800781 176.398438 C 357.121094 164.71875 356 157.121094 355.601562 139.601562 C 354.640625 103.519531 351.199219 88.320312 340.398438 72.078125 C 333.441406 61.519531 320.398438 51.601562 308.800781 48 C 305.921875 47.121094 302.558594 46 301.199219 45.601562 C 299.921875 45.199219 294.320312 44.238281 288.800781 43.519531 C 271.679688 41.28125 254.160156 42.878906 241.121094 47.921875 C 231.839844 51.519531 225.199219 55.679688 218.238281 62.320312 C 205.359375 74.480469 199.839844 86.160156 196.398438 108.398438 C 195.199219 115.601562 195.039062 120.160156 195.519531 133.199219 C 195.839844 144.078125 195.679688 150.878906 195.039062 154.398438 C 194.480469 157.28125 194.078125 165.679688 194.078125 173.199219 C 194 186.480469 193.921875 186.878906 191.679688 191.839844 C 188.558594 198.558594 185.839844 202.238281 176.960938 211.679688 C 172.878906 216 168.398438 221.28125 167.039062 223.359375 L 164.558594 227.199219 L 158.960938 227.199219 C 154 227.199219 153.519531 227.039062 154 225.761719 C 154.320312 225.039062 154.71875 222.398438 154.960938 219.839844 C 155.519531 213.839844 153.359375 209.121094 148 205.199219 C 145.921875 203.679688 143.761719 202.398438 143.28125 202.398438 C 142.800781 202.398438 142.398438 202 142.398438 201.519531 C 142.398438 201.121094 142.078125 200.960938 141.601562 201.199219 C 141.199219 201.441406 140.800781 201.039062 140.800781 200.160156 C 140.800781 199.359375 140.160156 198 139.359375 197.121094 C 138.238281 195.921875 138 194.960938 138.398438 192.640625 C 139.28125 188.078125 142.480469 183.921875 151.28125 176.398438 C 159.839844 168.960938 161.921875 159.519531 157.039062 150.078125 C 155.359375 146.878906 149.28125 140.480469 148.960938 141.519531 C 148.800781 142 150.238281 144.800781 152.238281 147.761719 C 156.558594 154.398438 157.359375 158.558594 155.519531 164.71875 C 154.398438 168.480469 153.199219 170.078125 146 177.121094 C 141.441406 181.601562 137.199219 186.078125 136.558594 187.199219 C 134.558594 190.558594 134.160156 194.878906 135.601562 197.679688 C 137.039062 200.398438 142.078125 205.601562 143.28125 205.601562 C 144.398438 205.601562 149.121094 210.398438 150.320312 212.640625 C 152.078125 216 151.441406 223.519531 148.960938 228.398438 C 148.320312 229.679688 147.679688 231.679688 147.519531 232.71875 L 147.359375 234.558594 L 149.359375 232.71875 C 151.28125 230.800781 151.601562 230.800781 165.441406 230.960938 C 173.28125 231.039062 182.160156 231.519531 185.199219 232 C 202.238281 234.71875 210.160156 237.199219 214.238281 241.28125 C 216.71875 243.761719 216.800781 244 216.800781 250.960938 L 216.800781 258.160156 L 213.761719 259.039062 C 210.160156 260.160156 206.160156 264.160156 204.878906 267.921875 L 204 270.558594 L 207.441406 267.441406 C 212.398438 262.878906 217.761719 261.199219 227.601562 261.28125 C 234.480469 261.28125 236.238281 261.601562 240.238281 263.441406 C 248.71875 267.28125 256.71875 277.039062 257.761719 284.800781 L 258 286.800781 L 250.160156 286.640625 L 242.320312 286.558594 L 240.640625 283.28125 C 237.441406 276.800781 231.761719 273.601562 223.601562 273.601562 C 219.28125 273.601562 217.28125 274.078125 212.71875 276.160156 C 209.679688 277.601562 207.199219 279.199219 207.199219 279.761719 C 207.199219 281.441406 210.800781 281.839844 213.921875 280.480469 L 216.800781 279.28125 L 216.800781 281.679688 C 216.800781 283.28125 216.480469 283.921875 215.839844 283.519531 C 215.28125 283.121094 215.199219 283.28125 215.601562 283.921875 C 215.921875 284.480469 216.320312 287.679688 216.558594 290.960938 C 216.800781 295.441406 216.640625 297.199219 215.839844 297.679688 C 215.039062 298.238281 215.039062 298.398438 215.761719 298.398438 C 216.558594 298.398438 216.71875 301.601562 216.480469 312.078125 C 216.238281 319.601562 215.921875 325.921875 215.679688 326.160156 C 215.441406 326.398438 214.71875 326.238281 214.078125 325.679688 C 212.71875 324.480469 208.800781 325.359375 208.800781 326.800781 C 208.800781 327.441406 208.078125 328.078125 207.28125 328.398438 C 206.398438 328.640625 205.359375 329.839844 204.960938 331.039062 C 204.480469 332.238281 203.921875 333.839844 203.601562 334.558594 C 203.28125 335.441406 203.359375 336 203.921875 336 C 204.398438 336 204.800781 335.519531 204.800781 334.878906 C 204.800781 333.28125 207.359375 328.878906 208.558594 328.480469 C 209.121094 328.238281 210.71875 328.71875 212.160156 329.441406 C 214.078125 330.398438 216.71875 330.800781 221.601562 330.800781 C 228.238281 330.800781 230 330.238281 234.398438 327.121094 C 235.359375 326.398438 236.878906 326.800781 241.121094 328.800781 L 246.558594 331.359375 L 243.039062 334.960938 C 238.160156 340 231.441406 343.039062 223.519531 344 C 220 344.398438 215.839844 344.558594 214.320312 344.320312 C 210.238281 343.761719 204.800781 340.71875 204.320312 338.640625 C 204 337.601562 203.519531 337.039062 203.039062 337.28125 C 202.640625 337.519531 202.71875 338.160156 203.199219 338.800781 C 203.761719 339.441406 203.921875 340.320312 203.601562 340.71875 C 203.359375 341.199219 203.679688 342.558594 204.320312 343.839844 C 205.441406 346 207.28125 347.121094 211.761719 348.398438 C 213.359375 348.800781 213.441406 349.121094 212.558594 350.480469 C 211.28125 352.640625 204.480469 356.960938 200 358.640625 C 189.839844 362.238281 177.28125 364 161.519531 364.078125 C 144.800781 364.160156 146 364.878906 134.558594 347.601562 C 124.238281 331.839844 119.921875 327.28125 113.441406 325.121094 C 109.519531 323.839844 103.679688 323.839844 99.519531 325.199219 C 98.078125 325.679688 97.761719 325.359375 97.441406 323.121094 C 97.039062 320.800781 97.519531 320 100.71875 316.800781 C 107.199219 310.558594 109.761719 302.960938 108.078125 295.039062 C 106.71875 288.238281 104.558594 284.398438 99.519531 279.519531 L 95.199219 275.441406 L 95.199219 265.921875 C 95.199219 260.640625 94.960938 254.078125 94.71875 251.199219 C 94.238281 246.078125 94.320312 245.921875 97.121094 242.71875 C 99.28125 240.160156 101.359375 238.878906 105.761719 237.28125 C 112.71875 234.800781 122.078125 232.878906 130.800781 232.320312 C 138.160156 231.761719 139.199219 230.960938 139.199219 226.078125 C 139.121094 219.359375 135.441406 213.28125 129.039062 209.359375 C 127.199219 208.238281 125.039062 207.441406 124.238281 207.519531 C 123.441406 207.679688 123.28125 207.601562 123.839844 207.441406 C 125.601562 206.800781 123.28125 204.71875 121.28125 205.199219 C 120.078125 205.519531 119.28125 205.121094 118.480469 203.839844 C 117.359375 202 117.359375 202 119.121094 203.519531 C 121.679688 205.761719 122 204.558594 119.601562 201.921875 C 116.558594 198.640625 115.039062 194.558594 115.441406 190.71875 C 115.839844 186.71875 120.160156 179.921875 123.359375 178 C 129.28125 174.558594 135.921875 165.601562 136 161.039062 C 136 158 133.519531 153.921875 129.761719 150.640625 C 116.558594 139.441406 114.800781 135.121094 119.28125 124.960938 C 120.480469 122.160156 125.28125 115.441406 128 112.800781 C 132.800781 108 132.238281 107.359375 126.960938 111.441406 C 120.558594 116.398438 112.558594 130.558594 114.398438 133.601562 C 114.71875 134.160156 114.878906 135.121094 114.640625 135.679688 C 114.398438 136.238281 114.640625 138 115.199219 139.519531 C 116.320312 142.878906 126 152.078125 127.761719 151.441406 C 128.320312 151.199219 128.800781 151.28125 128.640625 151.679688 C 128.558594 152.078125 129.441406 153.921875 130.640625 155.839844 C 132.71875 158.960938 132.800781 159.441406 131.921875 162.878906 C 130.960938 166.71875 129.199219 168.878906 119.761719 177.441406 C 111.921875 184.558594 110.078125 191.839844 114 199.679688 C 116.078125 203.601562 122.800781 209.921875 126.800781 211.601562 C 131.28125 213.519531 135.921875 219.679688 137.199219 225.359375 C 137.601562 227.519531 137.441406 228 136.398438 228 C 135.679688 228 131.679688 228.398438 127.359375 228.800781 C 113.359375 230.320312 101.519531 233.601562 95.839844 237.519531 C 91.28125 240.800781 90.398438 243.359375 90.398438 254.640625 L 90.320312 264.398438 L 86.71875 266.640625 C 82.078125 269.601562 77.28125 276.71875 76 282.558594 C 74.71875 288.320312 75.359375 301.441406 77.199219 306.558594 C 78.878906 311.441406 84.878906 318.160156 88.238281 319.039062 C 90.558594 319.601562 90.878906 320.078125 91.761719 324.480469 C 92.640625 328.398438 92.558594 329.679688 91.601562 332 C 91.039062 333.519531 90.078125 336.160156 89.601562 337.839844 C 88.398438 341.839844 86.480469 342.878906 78.71875 344 C 70.71875 345.199219 66.71875 347.28125 63.441406 352.320312 C 61.039062 355.839844 60.800781 356.71875 60.800781 362.320312 C 60.800781 365.921875 61.441406 370.960938 62.398438 374.480469 C 63.28125 377.761719 64 381.039062 64 381.839844 C 64.078125 387.039062 47.359375 357.921875 40.878906 341.359375 C 37.121094 331.761719 32.160156 316.640625 30.878906 310.320312 C 30.160156 307.039062 29.039062 301.839844 28.398438 298.800781 C 24.960938 282.640625 23.839844 249.601562 26 229.359375 C 28.160156 209.199219 30.480469 198.878906 37.601562 177.519531 C 46.078125 152.160156 56.558594 132.320312 73.039062 111.121094 C 109.441406 64.078125 161.679688 33.839844 220.800781 25.601562 C 228.558594 24.480469 246.238281 23.441406 252.800781 23.761719 C 255.199219 23.839844 261.519531 24.160156 266.800781 24.320312 Z M 302.160156 94.640625 C 306.800781 97.601562 309.039062 100.238281 311.921875 106 C 314.640625 111.679688 316 118.480469 316 126.800781 C 316 138.480469 308.960938 155.839844 305.441406 153.039062 C 304.878906 152.558594 301.28125 151.359375 297.441406 150.398438 C 293.519531 149.359375 290.398438 148.238281 290.398438 147.921875 C 290.398438 147.601562 291.039062 146.800781 291.839844 146.238281 C 299.519531 140.800781 299.519531 123.039062 291.839844 117.359375 C 288.878906 115.121094 283.761719 115.359375 280.480469 117.921875 C 276.078125 121.28125 274.800781 124.878906 274.878906 133.761719 L 274.878906 141.441406 L 271.28125 139.601562 C 264.878906 136.398438 264.398438 135.359375 264.398438 126.078125 C 264.480469 119.679688 264.800781 117.039062 266.238281 113.359375 C 270.160156 103.121094 273.921875 97.921875 279.519531 95.039062 C 284.320312 92.558594 286.960938 92.078125 293.199219 92.320312 C 297.601562 92.480469 299.519531 92.960938 302.160156 94.640625 Z M 227.679688 96.71875 C 231.121094 98.800781 234.640625 104.320312 237.121094 111.441406 C 238.800781 116.238281 239.199219 118.960938 239.199219 124.960938 C 239.199219 133.28125 238.71875 134.398438 234.398438 136.640625 L 231.601562 138 L 231.839844 132.320312 C 232.078125 127.839844 231.839844 125.761719 230.558594 122.960938 C 227.199219 115.359375 219.761719 115.039062 215.121094 122.238281 C 212.800781 125.761719 212.71875 126.398438 212.960938 132.078125 C 213.199219 136.480469 213.839844 139.039062 215.121094 141.199219 C 217.199219 144.71875 216.71875 145.601562 211.121094 148.398438 L 207.359375 150.320312 L 206.078125 146.960938 C 203.199219 139.199219 202.238281 132.640625 202.640625 123.199219 C 203.039062 113.601562 204.078125 109.761719 207.921875 103.601562 C 210.320312 99.761719 211.039062 98.960938 214.480469 96.878906 C 218 94.71875 224.238281 94.640625 227.679688 96.71875 Z M 226.398438 126.800781 C 226.398438 130.480469 224.558594 131.839844 222.878906 129.441406 C 222.160156 128.480469 221.601562 127.28125 221.601562 126.800781 C 221.601562 126.320312 222.160156 125.121094 222.878906 124.160156 C 224.558594 121.761719 226.398438 123.121094 226.398438 126.800781 Z M 290.398438 124.71875 C 291.761719 127.28125 291.359375 129.441406 289.441406 130.078125 C 286.558594 130.960938 284.320312 126.398438 286.558594 124.160156 C 288 122.71875 289.441406 122.960938 290.398438 124.71875 Z M 264.558594 141.519531 C 267.761719 142.800781 272.558594 145.121094 275.359375 146.640625 C 278.160156 148.160156 284.480469 150.800781 289.519531 152.398438 C 300.878906 156 302.398438 156.800781 305.839844 160.800781 C 313.121094 169.359375 309.359375 176.320312 291.121094 188.238281 C 276 198.160156 267.441406 201.839844 255.921875 203.359375 C 243.839844 204.960938 231.921875 201.679688 221.839844 194.078125 C 215.199219 189.039062 204.558594 177.679688 202.480469 173.359375 C 199.359375 166.960938 200.878906 161.039062 206.878906 155.921875 C 209.039062 154.078125 222 146.160156 226.800781 143.839844 C 239.921875 137.28125 252.640625 136.480469 264.558594 141.519531 Z M 309.679688 191.121094 C 313.839844 195.441406 318.480469 207.039062 322.398438 222.800781 C 325.039062 233.441406 327.039062 238.960938 331.519531 248 C 336.71875 258.320312 337.921875 262.800781 337.921875 272.480469 C 338 278.878906 337.679688 281.679688 336.878906 282.71875 C 335.28125 284.640625 326.398438 288.71875 321.441406 289.679688 C 319.121094 290.160156 315.761719 290.878906 314 291.28125 C 307.839844 292.558594 298 292.960938 292.320312 292.078125 C 288.71875 291.519531 282.71875 289.519531 275.519531 286.398438 C 269.441406 283.761719 263.839844 281.601562 263.199219 281.601562 C 262.480469 281.601562 261.441406 280.078125 260.640625 277.761719 C 258.878906 273.039062 252.878906 265.679688 247.601562 262 C 242.320312 258.238281 237.039062 256.800781 228.160156 256.640625 C 221.199219 256.558594 220.800781 256.480469 221.28125 254.960938 C 222.160156 252.160156 221.679688 244.078125 220.480469 241.761719 C 217.839844 236.71875 212.238281 233.601562 201.519531 231.199219 C 197.441406 230.320312 193.28125 229.601562 192.238281 229.601562 C 189.839844 229.601562 189.921875 229.121094 193.121094 224 C 200.480469 212.238281 205.839844 199.761719 206.878906 192.078125 C 207.199219 189.839844 207.679688 188 208.078125 188 C 208.480469 188 208.800781 188.320312 208.800781 188.800781 C 208.800781 189.921875 220 199.199219 225.121094 202.320312 C 232.800781 206.960938 239.839844 208.800781 249.601562 208.800781 C 263.039062 208.800781 269.679688 206.480469 292.878906 193.601562 C 304.078125 187.441406 304.398438 187.28125 306.398438 188.558594 C 307.519531 189.28125 308.960938 190.398438 309.679688 191.121094 Z M 349.839844 234.238281 C 356.160156 245.199219 357.121094 248.71875 357.121094 259.199219 C 357.039062 266.71875 356.71875 269.28125 355.199219 273.121094 C 352.800781 279.519531 348.238281 284.320312 342.71875 286.398438 C 340.320312 287.28125 338.160156 288 337.839844 288 C 337.601562 288 339.679688 285.601562 342.480469 282.558594 C 345.28125 279.601562 348.71875 275.039062 350 272.398438 C 352.320312 267.839844 352.398438 267.121094 352.398438 257.601562 C 352.320312 249.441406 352 246.800781 350.640625 243.199219 C 349.761719 240.800781 348.238281 236.640625 347.28125 234 C 346.320312 231.359375 345.199219 228.480469 344.640625 227.601562 C 343.839844 226.160156 343.921875 226.078125 345.039062 227.039062 C 345.761719 227.679688 347.921875 230.878906 349.839844 234.238281 Z M 230.640625 280.480469 C 232.960938 281.679688 236.71875 285.28125 236.800781 286.398438 C 236.800781 286.640625 235.839844 286.960938 234.640625 287.039062 C 231.921875 287.28125 229.839844 288.640625 224.960938 293.519531 L 220.960938 297.519531 L 221.359375 289.359375 C 221.519531 284.878906 221.839844 280.71875 222 280.160156 C 222.480469 278.800781 227.601562 278.960938 230.640625 280.480469 Z M 392.558594 313.679688 C 390.398438 319.441406 376 331.28125 374.320312 328.71875 C 373.039062 326.71875 374 325.359375 378.320312 323.121094 C 382.640625 320.878906 389.921875 315.199219 391.839844 312.640625 C 393.359375 310.558594 393.601562 310.878906 392.558594 313.679688 Z M 228.398438 321.28125 C 231.121094 323.039062 230.960938 323.839844 227.601562 325.28125 C 223.761719 326.878906 220.480469 326.800781 221.121094 325.121094 C 221.359375 324.398438 221.601562 321.519531 221.601562 318.640625 L 221.601562 313.359375 L 224 316.640625 C 225.28125 318.480469 227.28125 320.558594 228.398438 321.28125 Z M 361.441406 317.519531 C 363.359375 318.960938 364.71875 320.320312 364.558594 320.480469 C 364.398438 320.640625 362.640625 320.238281 360.71875 319.601562 C 358.71875 318.878906 354.71875 318.320312 351.359375 318.320312 C 342.878906 318.320312 336.960938 321.441406 329.28125 329.839844 C 326.160156 333.359375 322.558594 336.640625 321.359375 337.359375 L 319.039062 338.480469 L 320.640625 336.238281 C 321.441406 335.039062 322.71875 333.039062 323.441406 331.921875 C 326.960938 326.078125 333.601562 319.519531 338.480469 316.960938 C 343.359375 314.398438 344 314.320312 350.800781 314.558594 C 357.679688 314.800781 358.238281 314.960938 361.441406 317.519531 Z M 360.398438 325.441406 C 364.078125 327.601562 366.320312 332.878906 366.480469 340 C 366.640625 346.71875 367.839844 350.640625 370.238281 351.921875 C 372.320312 353.039062 378.398438 353.039062 381.359375 351.921875 C 382.558594 351.519531 385.839844 351.121094 388.558594 351.121094 C 397.679688 351.121094 401.441406 355.839844 400.320312 366 C 399.441406 374.238281 399.519531 382 400.398438 382.238281 C 400.878906 382.398438 401.28125 381.839844 401.441406 381.039062 C 402.320312 375.601562 402.398438 375.519531 404.160156 378.480469 C 405.039062 379.921875 407.519531 383.039062 409.601562 385.441406 C 414 390.398438 415.441406 394.238281 414.480469 398.640625 C 412.800781 405.839844 408.71875 409.359375 388.71875 420.71875 C 381.039062 425.039062 369.199219 432.480469 362.398438 437.121094 C 348.960938 446.398438 337.679688 452.398438 332 453.199219 C 325.679688 454.078125 324.480469 454.160156 318.160156 453.519531 C 302.078125 452 293.679688 442.480469 294.558594 426.960938 C 294.878906 421.441406 295.519531 419.039062 298.558594 411.921875 C 300.640625 407.28125 302.640625 402.078125 303.199219 400.320312 C 306.078125 390.320312 309.601562 374.878906 311.121094 365.519531 C 313.601562 350.398438 315.199219 347.359375 322.800781 343.199219 C 324.558594 342.238281 328.320312 338.960938 331.039062 335.921875 C 337.121094 329.359375 342.078125 325.761719 347.121094 324.320312 C 351.441406 323.121094 357.039062 323.601562 360.398438 325.441406 Z M 115.28125 332.480469 C 116.878906 333.441406 119.441406 335.839844 120.960938 337.761719 C 124.078125 341.601562 130.398438 350.878906 130.398438 351.519531 C 130.398438 353.199219 146.960938 375.039062 158.078125 388 C 172.558594 404.878906 177.601562 415.441406 176.558594 426.480469 C 175.679688 436.160156 171.199219 441.199219 161.199219 443.761719 C 152.078125 446.160156 140.71875 443.601562 118.558594 434.078125 C 106.960938 429.121094 95.039062 425.039062 90.160156 424.320312 C 75.679688 422.160156 68.71875 419.121094 65.121094 413.441406 C 62.160156 408.71875 62.640625 404.960938 67.679688 393.921875 C 70.398438 387.921875 70.398438 383.359375 67.601562 371.679688 C 64.160156 357.199219 66.800781 351.921875 78.800781 349.761719 C 89.679688 347.761719 89.359375 347.761719 90 350.160156 C 90.640625 352.800781 92.640625 355.199219 94.160156 355.199219 C 95.359375 355.199219 95.359375 355.039062 94.398438 350.800781 C 92.480469 342.71875 96.480469 332.71875 102.480469 330.640625 C 106.078125 329.359375 111.679688 330.160156 115.28125 332.480469 Z M 261.359375 337.121094 C 266.078125 338.160156 272 339.519531 274.398438 340 C 280.480469 341.28125 309.121094 341.921875 311.199219 340.800781 C 312.800781 339.921875 313.601562 341.039062 312 342 C 309.921875 343.28125 306.160156 354.238281 305.199219 362 C 304.800781 365.601562 304.238281 368.398438 301.519531 382.160156 C 300.800781 385.761719 299.839844 387.199219 295.039062 392.398438 C 284.71875 403.519531 274.078125 409.519531 258 413.441406 C 250.320312 415.28125 228.480469 415.28125 220 413.359375 C 205.039062 410 190.71875 400 182.078125 386.800781 C 177.441406 379.921875 172.800781 371.199219 172.800781 369.679688 C 172.800781 369.199219 174 368.800781 175.441406 368.800781 C 179.601562 368.800781 194.398438 365.839844 199.519531 364 C 207.679688 361.039062 211.679688 358.640625 215.921875 353.921875 C 219.601562 349.679688 220.320312 349.28125 223.761719 349.039062 C 232.320312 348.398438 243.28125 343.28125 248 337.761719 C 249.519531 336 251.199219 334.640625 251.761719 334.800781 C 252.238281 334.960938 256.558594 336 261.359375 337.121094 Z M 377.359375 343.679688 C 379.28125 344.398438 380.800781 345.28125 380.800781 345.601562 C 380.800781 346 379.601562 346.640625 378.238281 347.121094 C 375.839844 348 375.441406 347.921875 373.839844 346 C 370.558594 342.238281 371.601562 341.519531 377.359375 343.679688 Z M 409.601562 420 C 409.601562 420.398438 409.039062 420.800781 408.398438 420.800781 C 407.761719 420.800781 407.199219 420.398438 407.199219 420 C 407.199219 419.519531 407.761719 419.199219 408.398438 419.199219 C 409.039062 419.199219 409.601562 419.519531 409.601562 420 Z M 406.398438 420.800781 C 406.398438 421.199219 406 421.601562 405.519531 421.601562 C 405.121094 421.601562 404.960938 421.199219 405.199219 420.800781 C 405.441406 420.320312 405.839844 420 406.078125 420 C 406.238281 420 406.398438 420.320312 406.398438 420.800781 Z M 402.878906 423.359375 C 403.199219 423.921875 403.121094 424 402.558594 423.679688 C 402 423.359375 401.601562 423.519531 401.601562 423.921875 C 401.601562 424.398438 402 424.800781 402.480469 424.800781 C 402.960938 424.800781 403.199219 425.601562 403.039062 426.558594 C 402.878906 427.601562 402.480469 428.320312 402.160156 428.160156 C 401.761719 428 400.71875 428.800781 399.679688 429.921875 C 398.71875 431.039062 397.601562 432 397.121094 432 C 396.640625 432 395.441406 433.039062 394.398438 434.398438 C 393.359375 435.679688 392.238281 436.800781 391.761719 436.800781 C 391.359375 436.800781 391.441406 436.238281 392 435.601562 C 392.71875 434.800781 392.71875 434.398438 392.078125 434.398438 C 391.601562 434.398438 391.199219 434.71875 391.199219 435.039062 C 391.199219 436.238281 388.480469 435.761719 387.441406 434.480469 C 386.640625 433.519531 386.480469 433.441406 386.398438 434.320312 C 386.398438 435.199219 386.160156 435.199219 385.039062 434.320312 C 383.761719 433.28125 383.679688 433.359375 384.71875 434.558594 C 385.28125 435.359375 386.160156 435.761719 386.640625 435.441406 C 387.121094 435.121094 387.28125 435.441406 386.960938 436.238281 C 386.398438 437.839844 388 438.078125 389.441406 436.640625 C 390.160156 435.921875 390.398438 436 390.398438 437.121094 C 390.398438 437.921875 389.679688 438.71875 388.878906 438.960938 C 388 439.199219 387.121094 439.839844 386.878906 440.480469 C 386.640625 441.121094 385.921875 441.601562 385.199219 441.601562 C 384.558594 441.601562 384 441.921875 384 442.238281 C 384 443.519531 374.398438 449.519531 372.960938 449.121094 C 371.921875 448.800781 371.839844 448.878906 372.640625 449.441406 C 373.441406 450 371.601562 451.359375 365.839844 454.558594 C 356.878906 459.679688 347.121094 464.71875 343.601562 466.078125 C 342.320312 466.558594 338.878906 468 336 469.121094 C 292.640625 486.960938 236.558594 489.519531 187.601562 476 C 172.078125 471.679688 151.921875 463.121094 139.601562 455.519531 C 137.839844 454.480469 135.039062 452.800781 133.28125 451.761719 C 128 448.71875 127.441406 448.398438 126.078125 447.28125 C 125.359375 446.71875 125.039062 445.921875 125.28125 445.519531 C 125.519531 445.121094 125.199219 445.039062 124.558594 445.28125 C 123.359375 445.679688 121.039062 443.519531 121.921875 442.640625 C 122.160156 442.398438 122.398438 442.558594 122.398438 443.039062 C 122.398438 443.601562 122.800781 444 123.28125 444 C 123.679688 444 123.921875 443.679688 123.679688 443.28125 C 123.441406 442.878906 125.839844 443.601562 129.039062 444.878906 C 136.480469 447.761719 143.761719 449.839844 146.800781 450 C 148.160156 450.078125 151.519531 450.398438 154.398438 450.71875 C 157.601562 451.039062 161.039062 450.960938 163.199219 450.398438 C 165.199219 449.921875 168.160156 449.199219 169.839844 448.71875 C 171.761719 448.238281 174.238281 446.558594 176.960938 443.761719 C 179.199219 441.519531 180.800781 440.078125 180.480469 440.558594 C 180.160156 441.121094 180.160156 441.601562 180.558594 441.601562 C 180.878906 441.601562 182 441.839844 183.039062 442.078125 C 184.078125 442.398438 184.800781 442.238281 184.800781 441.679688 C 184.800781 441.199219 184.238281 441.039062 183.441406 441.359375 C 182.558594 441.679688 182.320312 441.601562 182.71875 440.960938 C 183.039062 440.398438 182.878906 440 182.480469 440 C 181.28125 440 181.441406 437.519531 182.640625 435.921875 C 183.519531 434.71875 183.761719 434.800781 184.558594 436.480469 C 185.039062 437.519531 185.121094 438.398438 184.71875 438.398438 C 184.320312 438.398438 184 438.800781 184 439.359375 C 184 439.921875 184.558594 439.761719 185.441406 439.039062 C 186.320312 438.238281 187.679688 437.921875 189.199219 438.160156 C 194.320312 439.039062 199.679688 439.121094 198.238281 438.320312 C 197.441406 437.839844 196.800781 437.199219 196.800781 436.71875 C 196.800781 436.320312 197.679688 436.558594 198.800781 437.28125 C 199.921875 438 200.640625 438.800781 200.480469 439.121094 C 200.238281 439.441406 201.441406 439.519531 203.039062 439.359375 C 205.761719 439.039062 205.921875 439.039062 204.800781 440.398438 C 203.679688 441.761719 203.679688 441.761719 205.359375 440.71875 L 207.199219 439.601562 L 205.359375 438.640625 C 204.398438 438.078125 204 437.601562 204.398438 437.601562 C 204.878906 437.601562 204.640625 437.199219 204 436.71875 C 202.960938 436 203.039062 435.921875 204.160156 436.320312 C 204.960938 436.558594 205.761719 436.320312 206.078125 435.921875 C 206.398438 435.359375 206.878906 435.359375 207.359375 435.839844 C 207.839844 436.320312 209.121094 436.398438 210.320312 436.078125 C 211.441406 435.679688 214.320312 435.519531 216.640625 435.601562 C 219.359375 435.679688 220.558594 435.441406 220.078125 434.960938 C 219.121094 434 216.078125 433.921875 211.039062 434.800781 C 208.320312 435.199219 207.199219 435.121094 207.199219 434.480469 C 207.199219 434 207.679688 433.601562 208.238281 433.601562 C 208.878906 433.601562 208.878906 433.359375 208.078125 432.878906 C 207.28125 432.320312 208.078125 432 210.71875 431.601562 C 213.601562 431.121094 214.71875 431.28125 215.28125 432.078125 C 215.679688 432.71875 216 432.878906 216 432.558594 C 216 432.238281 216.71875 432.320312 217.519531 432.800781 C 218.558594 433.28125 219.28125 433.359375 219.601562 432.800781 C 219.839844 432.398438 220.640625 432.320312 221.28125 432.558594 C 222.320312 432.960938 222.320312 433.121094 221.441406 433.679688 C 220.878906 434.078125 220.558594 434.398438 220.800781 434.480469 C 221.039062 434.480469 221.921875 434.640625 222.800781 434.800781 C 223.679688 434.960938 224.558594 434.71875 224.878906 434.238281 C 225.519531 433.28125 231.199219 434.878906 232.160156 436.320312 C 232.558594 436.960938 232.800781 436.878906 232.800781 436.160156 C 232.800781 435.519531 233.199219 435.359375 233.839844 435.761719 C 234.71875 436.320312 242.398438 437.519531 245.839844 437.679688 C 246.558594 437.679688 247.199219 438 247.199219 438.398438 C 247.199219 438.960938 248.640625 438.960938 250.398438 438.398438 C 250.640625 438.320312 252.800781 438.320312 255.199219 438.480469 C 262.558594 438.71875 263.359375 438.71875 270 438.078125 C 273.519531 437.679688 278.800781 437.28125 281.761719 437.121094 C 286.398438 436.960938 287.039062 437.039062 286.640625 438.160156 C 286.320312 438.960938 286.480469 439.28125 286.960938 438.960938 C 287.441406 438.640625 288.238281 439.519531 288.878906 441.039062 C 290.558594 445.359375 295.199219 451.441406 298.878906 454.160156 C 300.800781 455.601562 305.121094 457.679688 308.558594 458.800781 C 313.921875 460.558594 316.078125 460.878906 323.839844 460.71875 C 334.160156 460.558594 336.160156 460 348.238281 453.921875 C 353.039062 451.519531 357.28125 449.839844 357.761719 450.078125 C 358.238281 450.398438 358.398438 450.320312 358.160156 449.839844 C 357.839844 449.359375 358.878906 448.320312 360.398438 447.519531 C 361.921875 446.71875 363.199219 445.761719 363.199219 445.441406 C 363.199219 445.039062 363.761719 444.800781 364.398438 444.800781 C 365.039062 444.800781 365.601562 444.320312 365.601562 443.761719 C 365.601562 443.121094 365.921875 443.199219 366.398438 444 C 367.039062 445.039062 367.199219 445.039062 367.199219 443.839844 C 367.199219 442.640625 373.519531 437.839844 381.519531 433.039062 C 384.320312 431.359375 387.28125 430.398438 384.800781 432 C 383.839844 432.640625 383.921875 432.800781 385.28125 432.800781 C 386.238281 432.800781 387.441406 432.238281 388 431.601562 C 388.800781 430.640625 388.800781 430.398438 387.921875 430.398438 C 387.039062 430.398438 387.039062 430.238281 388 429.601562 C 389.761719 428.480469 390.398438 428.640625 389.839844 430.160156 C 389.519531 430.960938 389.679688 431.28125 390.160156 430.960938 C 390.71875 430.558594 390.878906 431.039062 390.640625 432.078125 C 390.238281 433.359375 390.480469 433.679688 391.28125 433.441406 C 391.921875 433.199219 392.320312 432.558594 392.238281 432.078125 C 392.078125 431.601562 392.640625 431.199219 393.441406 431.199219 C 394.558594 431.121094 394.480469 430.960938 393.039062 430.160156 C 391.039062 429.039062 391.441406 427.921875 394.398438 426.480469 L 396.398438 425.519531 L 394.640625 427.121094 C 392.238281 429.121094 392.320312 429.441406 394.878906 428.960938 C 396.238281 428.71875 396.878906 428.878906 396.558594 429.441406 C 396.238281 429.839844 396.558594 430.480469 397.199219 430.71875 C 398.238281 431.121094 398.320312 430.878906 397.601562 429.519531 C 396.480469 427.519531 397.28125 424.800781 399.039062 424.800781 C 400.078125 424.800781 400.078125 424.960938 398.800781 425.839844 C 396.640625 427.441406 397.921875 428.960938 400.398438 427.839844 C 402.71875 426.800781 402.878906 426.160156 401.199219 424.800781 C 400.160156 423.921875 400.160156 423.601562 400.960938 423.121094 C 402.320312 422.238281 402.238281 422.238281 402.878906 423.359375 Z M 406.960938 422.878906 C 406.71875 423.121094 406 423.199219 405.441406 422.960938 C 404.800781 422.71875 405.039062 422.480469 405.921875 422.480469 C 406.800781 422.398438 407.28125 422.640625 406.960938 422.878906 Z M 201.921875 435.359375 C 201.601562 436.320312 201.839844 437.28125 202.480469 437.761719 C 203.359375 438.320312 203.199219 438.398438 202.078125 438.238281 C 201.199219 438.078125 200.480469 437.359375 200.320312 436.558594 C 200.238281 435.679688 199.839844 434.800781 199.519531 434.558594 C 199.199219 434.238281 199.199219 434.640625 199.441406 435.359375 C 199.761719 436.160156 199.601562 436.800781 199.28125 436.800781 C 198.878906 436.800781 198.398438 436.320312 198.160156 435.761719 C 197.921875 435.039062 197.519531 435.039062 196.480469 435.921875 C 195.441406 436.800781 194.878906 436.800781 194.238281 436.160156 C 193.199219 435.121094 191.679688 434.878906 192.320312 435.839844 C 192.480469 436.160156 192 436.558594 191.121094 436.558594 C 190.160156 436.640625 189.761719 436.398438 190.078125 435.839844 C 190.480469 435.28125 190.160156 435.121094 189.359375 435.441406 C 188.558594 435.679688 188 435.679688 188 435.28125 C 188 434.878906 189.28125 434.398438 190.800781 434.238281 C 192.320312 434.078125 193.601562 434.238281 193.601562 434.640625 C 193.601562 435.039062 194.078125 435.039062 194.640625 434.558594 C 195.679688 433.679688 199.839844 432.960938 201.441406 433.441406 C 202.078125 433.679688 202.238281 434.398438 201.921875 435.359375 Z M 206.398438 434.078125 C 206.398438 434.800781 205.839844 435.199219 205.039062 435.039062 C 203.039062 434.640625 202.800781 432.800781 204.71875 432.800781 C 205.679688 432.800781 206.398438 433.28125 206.398438 434.078125 Z M 186.320312 436.71875 C 185.121094 437.121094 184.558594 436.238281 185.199219 435.199219 C 185.679688 434.480469 186 434.480469 186.480469 435.28125 C 186.878906 435.921875 186.800781 436.480469 186.320312 436.71875 Z M 196.558594 438.078125 C 196.320312 438.320312 195.601562 438.398438 195.039062 438.160156 C 194.398438 437.921875 194.640625 437.679688 195.519531 437.679688 C 196.398438 437.601562 196.878906 437.839844 196.558594 438.078125 Z M 120.800781 442.480469 C 120.800781 442.960938 119.761719 442.558594 118.398438 441.601562 C 117.121094 440.640625 116 439.761719 116 439.519531 C 116 439.359375 117.121094 439.679688 118.398438 440.398438 C 119.761719 441.121094 120.800781 442 120.800781 442.480469 Z M 120.800781 442.480469 "/>
<path style=" stroke:none;fill-rule:nonzero;fill:rgb(0%,0%,0%);fill-opacity:1;" d="M 141.121094 137.519531 C 141.441406 138 142.398438 138.800781 143.359375 139.28125 C 144.558594 139.921875 144.800781 139.921875 144.480469 139.28125 C 144.160156 138.800781 143.199219 138 142.238281 137.519531 C 141.039062 136.878906 140.800781 136.878906 141.121094 137.519531 Z M 141.121094 137.519531 "/>
<path style=" stroke:none;fill-rule:nonzero;fill:rgb(0%,0%,0%);fill-opacity:1;" d="M 146.398438 140.800781 C 147.441406 142.640625 148 142.878906 148 141.28125 C 148 140.640625 147.441406 140 146.800781 139.679688 C 145.761719 139.359375 145.679688 139.519531 146.398438 140.800781 Z M 146.398438 140.800781 "/>
<path style=" stroke:none;fill-rule:nonzero;fill:rgb(0%,0%,0%);fill-opacity:1;" d="M 202.320312 242.320312 C 204.960938 244.800781 205.601562 247.519531 203.679688 248.238281 C 202.480469 248.71875 201.601562 248.160156 201.601562 247.039062 C 201.601562 246.640625 202 246.558594 202.558594 246.878906 C 203.121094 247.28125 203.199219 247.121094 202.800781 246.398438 C 202.320312 245.601562 202 245.601562 201.28125 246.558594 C 200.160156 248 198.398438 247.519531 198.398438 245.761719 C 198.398438 244.800781 198.160156 244.71875 197.761719 245.359375 C 197.28125 246.078125 195.441406 245.921875 190 244.558594 C 183.519531 243.039062 180.640625 242.878906 161.601562 242.878906 C 143.441406 242.878906 138.800781 243.199219 129.199219 244.71875 C 123.039062 245.761719 116.238281 247.039062 114.078125 247.679688 C 111.921875 248.320312 109.441406 248.800781 108.640625 248.800781 C 106.320312 248.800781 106 246.558594 107.921875 243.921875 C 110.238281 240.800781 108.238281 240.71875 104.71875 243.839844 C 102.640625 245.761719 102.398438 246.238281 103.121094 248.078125 C 106.960938 258.398438 147.921875 263.359375 184.800781 258 C 197.839844 256.078125 202.960938 254.480469 206.960938 250.960938 C 210.800781 247.601562 210.398438 245.519531 205.039062 241.761719 C 201.199219 239.039062 199.28125 239.441406 202.320312 242.320312 Z M 202.320312 242.320312 "/>
<path style=" stroke:none;fill-rule:nonzero;fill:rgb(0%,0%,0%);fill-opacity:1;" d="M 207.199219 258 C 206.320312 259.039062 206.398438 259.121094 207.519531 258.71875 C 208.238281 258.480469 208.800781 257.921875 208.800781 257.519531 C 208.800781 256.480469 208.320312 256.640625 207.199219 258 Z M 207.199219 258 "/>
<path style=" stroke:none;fill-rule:nonzero;fill:rgb(0%,0%,0%);fill-opacity:1;" d="M 103.199219 258.398438 C 103.199219 258.800781 103.601562 259.199219 104.078125 259.199219 C 104.480469 259.199219 104.640625 258.800781 104.398438 258.398438 C 104.160156 257.921875 103.761719 257.601562 103.519531 257.601562 C 103.359375 257.601562 103.199219 257.921875 103.199219 258.398438 Z M 103.199219 258.398438 "/>
<path style=" stroke:none;fill-rule:nonzero;fill:rgb(0%,0%,0%);fill-opacity:1;" d="M 107.601562 260.800781 C 107.839844 261.199219 108.480469 261.601562 108.878906 261.601562 C 109.359375 261.601562 109.441406 261.199219 109.199219 260.800781 C 108.960938 260.320312 108.320312 260 107.921875 260 C 107.441406 260 107.359375 260.320312 107.601562 260.800781 Z M 107.601562 260.800781 "/>
<path style=" stroke:none;fill-rule:nonzero;fill:rgb(0%,0%,0%);fill-opacity:1;" d="M 201.28125 260.960938 C 201.519531 261.359375 202.078125 261.441406 202.480469 261.199219 C 203.519531 260.480469 203.359375 260.238281 202 260.238281 C 201.359375 260.238281 201.039062 260.558594 201.28125 260.960938 Z M 201.28125 260.960938 "/>
<path style=" stroke:none;fill-rule:nonzero;fill:rgb(0%,0%,0%);fill-opacity:1;" d="M 111.199219 262.238281 C 111.839844 262.71875 113.679688 263.28125 115.199219 263.519531 C 117.039062 263.921875 117.601562 263.839844 116.800781 263.359375 C 116.160156 262.878906 114.320312 262.320312 112.800781 262.078125 C 110.960938 261.679688 110.398438 261.761719 111.199219 262.238281 Z M 111.199219 262.238281 "/>
<path style=" stroke:none;fill-rule:nonzero;fill:rgb(0%,0%,0%);fill-opacity:1;" d="M 191.601562 264 C 189.601562 264.878906 191.679688 264.878906 194.398438 264 C 196 263.519531 196.078125 263.359375 194.800781 263.359375 C 193.921875 263.359375 192.480469 263.601562 191.601562 264 Z M 191.601562 264 "/>
<path style=" stroke:none;fill-rule:nonzero;fill:rgb(0%,0%,0%);fill-opacity:1;" d="M 119.199219 264.320312 C 119.199219 264.960938 123.039062 265.28125 124.480469 264.800781 C 125.519531 264.398438 124.878906 264.160156 122.640625 264.160156 C 120.71875 264.160156 119.199219 264.238281 119.199219 264.320312 Z M 119.199219 264.320312 "/>
<path style=" stroke:none;fill-rule:nonzero;fill:rgb(0%,0%,0%);fill-opacity:1;" d="M 180.800781 266.320312 C 180.800781 266.640625 181.679688 266.800781 182.800781 266.558594 C 183.921875 266.398438 184.800781 266.078125 184.800781 265.921875 C 184.800781 265.761719 183.921875 265.601562 182.800781 265.601562 C 181.679688 265.601562 180.800781 265.921875 180.800781 266.320312 Z M 180.800781 266.320312 "/>
<path style=" stroke:none;fill-rule:nonzero;fill:rgb(0%,0%,0%);fill-opacity:1;" d="M 177.441406 266.960938 C 177.921875 267.121094 178.878906 267.121094 179.441406 266.960938 C 179.921875 266.71875 179.519531 266.558594 178.398438 266.558594 C 177.28125 266.558594 176.878906 266.71875 177.441406 266.960938 Z M 177.441406 266.960938 "/>
<path style=" stroke:none;fill-rule:nonzero;fill:rgb(0%,0%,0%);fill-opacity:1;" d="M 288.960938 164.238281 C 287.039062 165.121094 286.71875 166.398438 288 167.679688 C 289.199219 168.878906 287.121094 170.480469 280.398438 173.839844 C 263.121094 182.480469 233.679688 183.039062 220 174.960938 C 218.480469 174.078125 215.761719 172 214 170.398438 C 210.160156 166.800781 208.398438 166.160156 207.199219 167.601562 C 205.761719 169.28125 206.480469 172.480469 208.238281 172.160156 C 209.121094 172 211.679688 173.761719 214.640625 176.558594 C 217.839844 179.519531 221.121094 181.679688 223.601562 182.640625 C 238.71875 187.921875 258.238281 187.601562 275.519531 181.601562 C 280.960938 179.761719 290 174.960938 292.558594 172.640625 C 293.601562 171.679688 295.039062 171.199219 296.398438 171.359375 C 297.839844 171.519531 298.960938 171.121094 299.519531 170.238281 C 301.441406 167.121094 293.121094 162.398438 288.960938 164.238281 Z M 288.960938 164.238281 "/>
<path style=" stroke:none;fill-rule:nonzero;fill:rgb(0%,0%,0%);fill-opacity:1;" d="M 210.878906 432.71875 C 210.640625 433.121094 211.28125 433.359375 212.320312 433.28125 C 213.359375 433.28125 214.078125 432.960938 213.839844 432.558594 C 213.359375 431.761719 211.359375 431.839844 210.878906 432.71875 Z M 210.878906 432.71875 "/>
<path style=" stroke:none;fill-rule:nonzero;fill:rgb(0%,0%,0%);fill-opacity:1;" d="M 388 432.71875 C 388 433.199219 388.320312 433.679688 388.640625 433.921875 C 389.039062 434.160156 389.359375 433.839844 389.359375 433.199219 C 389.359375 432.558594 389.039062 432 388.640625 432 C 388.320312 432 388 432.320312 388 432.71875 Z M 388 432.71875 "/>
<path style=" stroke:none;fill-rule:nonzero;fill:rgb(0%,0%,0%);fill-opacity:1;" d="M 221.921875 436.800781 C 220.960938 437.761719 216 438.558594 216 437.761719 C 216 437.441406 214.558594 437.28125 212.878906 437.441406 C 210.558594 437.679688 209.839844 438.078125 210 439.039062 C 210.078125 439.839844 209.761719 440.640625 209.28125 440.960938 C 208.71875 441.359375 208.960938 441.601562 209.921875 441.601562 C 210.878906 441.601562 211.199219 441.199219 210.960938 440.480469 C 210.320312 438.878906 212.398438 438.320312 214.160156 439.601562 C 214.960938 440.238281 215.199219 440.800781 214.800781 440.800781 C 214.320312 440.800781 213.519531 440.398438 213.039062 439.921875 C 212.320312 439.199219 212.078125 439.359375 212.160156 440.480469 C 212.320312 441.921875 212.71875 442 217.441406 441.441406 C 220.320312 441.121094 222.878906 440.640625 223.121094 440.320312 C 223.359375 440.078125 221.921875 440.078125 219.839844 440.398438 C 217.039062 440.800781 216 440.71875 216 440 C 216 439.441406 216.640625 439.199219 217.601562 439.441406 C 218.480469 439.679688 219.441406 439.519531 219.679688 439.121094 C 219.921875 438.640625 220.878906 438.558594 221.839844 438.800781 C 222.800781 438.960938 223.121094 438.960938 222.558594 438.71875 C 221.761719 438.320312 221.761719 438 222.480469 437.121094 C 223.519531 435.839844 223.121094 435.601562 221.921875 436.800781 Z M 221.921875 436.800781 "/>
<path style=" stroke:none;fill-rule:nonzero;fill:rgb(0%,0%,0%);fill-opacity:1;" d="M 206.398438 437.441406 C 206.398438 437.839844 206.960938 438.480469 207.679688 438.71875 C 208.480469 439.039062 208.800781 438.800781 208.640625 438.238281 C 208.238281 437.039062 206.398438 436.398438 206.398438 437.441406 Z M 206.398438 437.441406 "/>
<path style=" stroke:none;fill-rule:nonzero;fill:rgb(0%,0%,0%);fill-opacity:1;" d="M 234.398438 437.679688 C 234.398438 438.078125 232.078125 438.238281 229.039062 438 C 225.601562 437.679688 224 437.839844 224.71875 438.320312 C 225.28125 438.71875 227.199219 438.960938 228.960938 438.878906 C 230.640625 438.800781 232.238281 438.960938 232.480469 439.359375 C 232.71875 439.679688 232.480469 440 231.921875 440 C 231.359375 440 231.199219 440.238281 231.441406 440.480469 C 231.761719 440.800781 232.480469 440.558594 233.199219 440 C 233.839844 439.441406 235.28125 439.199219 236.320312 439.359375 C 237.679688 439.601562 238.160156 439.441406 237.839844 438.71875 C 237.441406 437.601562 234.398438 436.640625 234.398438 437.679688 Z M 234.398438 437.679688 "/>
<path style=" stroke:none;fill-rule:nonzero;fill:rgb(0%,0%,0%);fill-opacity:1;" d="M 239.28125 439.679688 C 239.28125 440.558594 239.519531 440.800781 239.761719 440.160156 C 240 439.601562 239.921875 438.878906 239.679688 438.640625 C 239.441406 438.320312 239.199219 438.800781 239.28125 439.679688 Z M 239.28125 439.679688 "/>
<path style=" stroke:none;fill-rule:nonzero;fill:rgb(0%,0%,0%);fill-opacity:1;" d="M 375.519531 439.601562 C 374.878906 441.199219 375.839844 442.398438 377.28125 441.839844 C 378.238281 441.441406 378.238281 441.28125 377.039062 440.320312 C 375.121094 438.878906 376.878906 438.878906 379.679688 440.398438 C 380.960938 441.039062 381.519531 441.601562 380.878906 441.601562 C 380.238281 441.601562 379.921875 441.761719 380.078125 442 C 380.320312 442.160156 381.921875 441.839844 383.601562 441.121094 C 386.640625 440.078125 386.640625 440 384.398438 440.078125 C 380.398438 440.238281 379.121094 440 379.519531 439.359375 C 379.679688 439.039062 378.960938 438.640625 377.921875 438.558594 C 376.800781 438.480469 375.761719 438.960938 375.519531 439.601562 Z M 375.519531 439.601562 "/>
<path style=" stroke:none;fill-rule:nonzero;fill:rgb(0%,0%,0%);fill-opacity:1;" d="M 226.398438 440 C 225.679688 440.480469 225.601562 440.800781 226.160156 440.800781 C 226.640625 440.800781 227.359375 440.398438 227.601562 440 C 228.238281 439.039062 227.921875 439.039062 226.398438 440 Z M 226.398438 440 "/>
<path style=" stroke:none;fill-rule:nonzero;fill:rgb(0%,0%,0%);fill-opacity:1;" d="M 280.398438 440 C 280.160156 440.398438 280.320312 440.800781 280.71875 440.800781 C 281.199219 440.800781 281.601562 440.398438 281.601562 440 C 281.601562 439.519531 281.441406 439.199219 281.28125 439.199219 C 281.039062 439.199219 280.640625 439.519531 280.398438 440 Z M 280.398438 440 "/>
<path style=" stroke:none;fill-rule:nonzero;fill:rgb(0%,0%,0%);fill-opacity:1;" d="M 186 440.878906 C 185.761719 441.199219 186.398438 441.28125 187.359375 441.039062 C 188.480469 440.800781 188.800781 440.960938 188.238281 441.359375 C 187.761719 441.679688 189.519531 441.921875 192.480469 441.921875 C 198.960938 441.761719 199.199219 441.761719 199.199219 440.960938 C 199.199219 440.238281 186.398438 440.078125 186 440.878906 Z M 186 440.878906 "/>
<path style=" stroke:none;fill-rule:nonzero;fill:rgb(0%,0%,0%);fill-opacity:1;" d="M 248.480469 442.878906 C 248.078125 444 248.160156 444.078125 249.199219 443.199219 C 250.558594 442.078125 250.71875 441.601562 249.679688 441.601562 C 249.28125 441.601562 248.71875 442.160156 248.480469 442.878906 Z M 248.480469 442.878906 "/>
<path style=" stroke:none;fill-rule:nonzero;fill:rgb(0%,0%,0%);fill-opacity:1;" d="M 253.839844 442.640625 C 253.839844 443.199219 254.558594 443.761719 255.441406 443.761719 C 256.320312 443.839844 256.878906 443.839844 256.71875 443.761719 C 256.558594 443.601562 255.839844 443.121094 255.121094 442.558594 C 254.160156 441.839844 253.839844 441.839844 253.839844 442.640625 Z M 253.839844 442.640625 "/>
<path style=" stroke:none;fill-rule:nonzero;fill:rgb(0%,0%,0%);fill-opacity:1;" d="M 223.601562 443.199219 C 222.320312 443.761719 222.238281 443.921875 223.359375 443.921875 C 224.078125 444 224.960938 443.601562 225.199219 443.199219 C 225.761719 442.320312 225.761719 442.320312 223.601562 443.199219 Z M 223.601562 443.199219 "/>
<path style=" stroke:none;fill-rule:nonzero;fill:rgb(0%,0%,0%);fill-opacity:1;" d="M 239.199219 443.199219 L 236.398438 443.761719 L 238.960938 443.921875 C 240.320312 443.921875 241.761719 443.601562 242 443.199219 C 242.238281 442.71875 242.398438 442.480469 242.238281 442.480469 C 242.078125 442.558594 240.71875 442.878906 239.199219 443.199219 Z M 239.199219 443.199219 "/>
<path style=" stroke:none;fill-rule:nonzero;fill:rgb(0%,0%,0%);fill-opacity:1;" d="M 244 443.199219 C 243.28125 443.679688 243.199219 444 243.761719 444 C 244.238281 444 244.960938 443.601562 245.199219 443.199219 C 245.839844 442.238281 245.519531 442.238281 244 443.199219 Z M 244 443.199219 "/>
<path style=" stroke:none;fill-rule:nonzero;fill:rgb(0%,0%,0%);fill-opacity:1;" d="M 228 444 C 227.039062 444.640625 227.28125 444.800781 229.039062 444.800781 C 230.320312 444.800781 231.121094 444.480469 230.800781 444 C 230.160156 443.039062 229.519531 443.039062 228 444 Z M 228 444 "/>
<path style=" stroke:none;fill-rule:nonzero;fill:rgb(0%,0%,0%);fill-opacity:1;" d="M 234.800781 444 C 235.039062 444.398438 235.441406 444.800781 235.679688 444.800781 C 235.839844 444.800781 236 444.398438 236 444 C 236 443.519531 235.601562 443.199219 235.121094 443.199219 C 234.71875 443.199219 234.558594 443.519531 234.800781 444 Z M 234.800781 444 "/>
<path style=" stroke:none;fill-rule:nonzero;fill:rgb(0%,0%,0%);fill-opacity:1;" d="M 260.800781 444 C 260.800781 444.398438 261.121094 444.800781 261.519531 444.800781 C 262 444.800781 262.558594 444.398438 262.800781 444 C 263.039062 443.519531 262.71875 443.199219 262.078125 443.199219 C 261.359375 443.199219 260.800781 443.519531 260.800781 444 Z M 260.800781 444 "/>
<path style=" stroke:none;fill-rule:nonzero;fill:rgb(0%,0%,0%);fill-opacity:1;" d="M 269.601562 444 C 268.878906 444.480469 268.800781 444.800781 269.359375 444.800781 C 269.839844 444.800781 270.558594 444.398438 270.800781 444 C 271.441406 443.039062 271.121094 443.039062 269.601562 444 Z M 269.601562 444 "/>
<path style=" stroke:none;fill-rule:nonzero;fill:rgb(0%,0%,0%);fill-opacity:1;" d="M 279.039062 443.761719 C 279.519531 443.921875 280.480469 443.921875 281.039062 443.761719 C 281.519531 443.519531 281.121094 443.359375 280 443.359375 C 278.878906 443.359375 278.480469 443.519531 279.039062 443.761719 Z M 279.039062 443.761719 "/>
<path style=" stroke:none;fill-rule:nonzero;fill:rgb(0%,0%,0%);fill-opacity:1;" d="M 286.078125 443.921875 C 285.761719 444.320312 286.320312 444.480469 287.199219 444.238281 C 289.039062 443.761719 289.28125 443.199219 287.679688 443.199219 C 287.039062 443.199219 286.320312 443.519531 286.078125 443.921875 Z M 286.078125 443.921875 "/>
<path style=" stroke:none;fill-rule:nonzero;fill:rgb(0%,0%,0%);fill-opacity:1;" d="M 369.199219 444.960938 C 362.398438 447.28125 362.238281 447.441406 363.441406 448.160156 C 364.238281 448.558594 366.160156 448.238281 368.558594 447.359375 C 370.640625 446.480469 372.800781 446 373.359375 446.160156 C 373.839844 446.320312 374.558594 446.078125 374.878906 445.519531 C 375.199219 444.960938 375.121094 444.800781 374.558594 445.121094 C 374.078125 445.359375 373.519531 445.28125 373.199219 444.800781 C 372.640625 443.839844 372.398438 443.921875 369.199219 444.960938 Z M 369.199219 444.960938 "/>
<path style=" stroke:none;fill-rule:nonzero;fill:rgb(0%,0%,0%);fill-opacity:1;" d="M 178 446.398438 C 177.761719 446.800781 178.078125 447.199219 178.800781 447.199219 C 179.519531 447.199219 179.839844 446.800781 179.601562 446.398438 C 179.359375 445.921875 178.960938 445.601562 178.800781 445.601562 C 178.640625 445.601562 178.238281 445.921875 178 446.398438 Z M 178 446.398438 "/>
<path style=" stroke:none;fill-rule:nonzero;fill:rgb(0%,0%,0%);fill-opacity:1;" d="M 187.839844 446 C 187.601562 446.238281 186.078125 446.480469 184.480469 446.558594 C 182.878906 446.640625 181.359375 446.960938 181.121094 447.359375 C 180.878906 447.679688 182.238281 447.921875 184.160156 447.761719 C 186.078125 447.601562 188.558594 447.761719 189.839844 448.078125 C 191.121094 448.480469 191.839844 448.398438 191.601562 448 C 191.199219 447.28125 194.558594 447.601562 197.441406 448.480469 C 197.921875 448.640625 198.398438 448.398438 198.398438 448 C 198.398438 447.519531 197.921875 447.121094 197.441406 447.121094 C 194.238281 446.800781 191.359375 446.398438 189.921875 446.078125 C 188.960938 445.839844 188.078125 445.839844 187.839844 446 Z M 187.839844 446 "/>
<path style=" stroke:none;fill-rule:nonzero;fill:rgb(0%,0%,0%);fill-opacity:1;" d="M 256.640625 446.160156 C 257.121094 446.320312 258.078125 446.320312 258.640625 446.160156 C 259.121094 445.921875 258.71875 445.761719 257.601562 445.761719 C 256.480469 445.761719 256.078125 445.921875 256.640625 446.160156 Z M 256.640625 446.160156 "/>
<path style=" stroke:none;fill-rule:nonzero;fill:rgb(0%,0%,0%);fill-opacity:1;" d="M 276 445.921875 C 276 446.078125 277.441406 446.398438 279.121094 446.558594 C 280.878906 446.71875 282.078125 446.558594 281.921875 446.238281 C 281.519531 445.601562 276 445.359375 276 445.921875 Z M 276 445.921875 "/>
<path style=" stroke:none;fill-rule:nonzero;fill:rgb(0%,0%,0%);fill-opacity:1;" d="M 175.199219 447.199219 C 174.160156 447.839844 174.238281 448 175.441406 448 C 176.160156 448 176.800781 447.601562 176.800781 447.199219 C 176.800781 446.238281 176.71875 446.238281 175.199219 447.199219 Z M 175.199219 447.199219 "/>
<path style=" stroke:none;fill-rule:nonzero;fill:rgb(0%,0%,0%);fill-opacity:1;" d="M 130.960938 447.679688 C 130.71875 448.078125 131.039062 448.878906 131.679688 449.441406 C 132.960938 450.558594 133.121094 449.839844 132.078125 448.078125 C 131.679688 447.519531 131.199219 447.359375 130.960938 447.679688 Z M 130.960938 447.679688 "/>
<path style=" stroke:none;fill-rule:nonzero;fill:rgb(0%,0%,0%);fill-opacity:1;" d="M 217.199219 448 C 216.878906 448.480469 216.320312 448.558594 215.839844 448.320312 C 215.28125 448 215.199219 448.160156 215.519531 448.640625 C 216.078125 449.601562 218.398438 449.039062 218.398438 447.921875 C 218.398438 446.960938 217.839844 447.039062 217.199219 448 Z M 217.199219 448 "/>
<path style=" stroke:none;fill-rule:nonzero;fill:rgb(0%,0%,0%);fill-opacity:1;" d="M 135.761719 448.878906 C 136.320312 449.441406 136.960938 449.679688 137.199219 449.441406 C 137.441406 449.199219 137.039062 448.71875 136.238281 448.480469 C 135.121094 448 135.039062 448.078125 135.761719 448.878906 Z M 135.761719 448.878906 "/>
<path style=" stroke:none;fill-rule:nonzero;fill:rgb(0%,0%,0%);fill-opacity:1;" d="M 204.480469 448.71875 C 204.160156 449.121094 204.71875 449.28125 205.601562 449.039062 C 207.441406 448.558594 207.679688 448 206.078125 448 C 205.441406 448 204.71875 448.320312 204.480469 448.71875 Z M 204.480469 448.71875 "/>
<path style=" stroke:none;fill-rule:nonzero;fill:rgb(0%,0%,0%);fill-opacity:1;" d="M 360.160156 449.601562 C 359.519531 450.640625 359.519531 451.199219 360 451.199219 C 360.480469 451.199219 361.039062 450.640625 361.359375 450 C 362.078125 448.078125 361.28125 447.839844 360.160156 449.601562 Z M 360.160156 449.601562 "/>
<path style=" stroke:none;fill-rule:nonzero;fill:rgb(0%,0%,0%);fill-opacity:1;" d="M 135.199219 451.039062 C 135.199219 451.359375 136 452.078125 137.039062 452.71875 C 138.800781 453.839844 138.800781 453.839844 137.28125 452.078125 C 135.679688 450.320312 135.199219 450.078125 135.199219 451.039062 Z M 135.199219 451.039062 "/>
<path style=" stroke:none;fill-rule:nonzero;fill:rgb(0%,0%,0%);fill-opacity:1;" d="M 186.398438 451.519531 C 186.960938 452.078125 187.441406 452.078125 188 451.519531 C 188.480469 451.039062 188.238281 450.71875 187.199219 450.71875 C 186.160156 450.71875 185.921875 451.039062 186.398438 451.519531 Z M 186.398438 451.519531 "/>
<path style=" stroke:none;fill-rule:nonzero;fill:rgb(0%,0%,0%);fill-opacity:1;" d="M 356.480469 451.839844 C 356.320312 452.160156 356.800781 452.480469 357.601562 452.480469 C 358.398438 452.480469 358.878906 452.160156 358.71875 451.839844 C 358.480469 451.519531 358 451.199219 357.601562 451.199219 C 357.199219 451.199219 356.71875 451.519531 356.480469 451.839844 Z M 356.480469 451.839844 "/>
<path style=" stroke:none;fill-rule:nonzero;fill:rgb(0%,0%,0%);fill-opacity:1;" d="M 196.640625 452.558594 C 197.199219 452.800781 197.921875 452.71875 198.160156 452.480469 C 198.480469 452.238281 198 452 197.121094 452.078125 C 196.238281 452.078125 196 452.320312 196.640625 452.558594 Z M 196.640625 452.558594 "/>
<path style=" stroke:none;fill-rule:nonzero;fill:rgb(0%,0%,0%);fill-opacity:1;" d="M 351.839844 454.960938 C 352.398438 455.199219 353.121094 455.121094 353.359375 454.878906 C 353.679688 454.640625 353.199219 454.398438 352.320312 454.480469 C 351.441406 454.480469 351.199219 454.71875 351.839844 454.960938 Z M 351.839844 454.960938 "/>
</g>
</svg>
